<svg width="36" height="36" viewBox="0 0 36 36" fill="none" xmlns="http://www.w3.org/2000/svg">
<g id="chem">
<path id="Vector" d="M31.1752 28.0927L22.5 13.6294V5.625H23.625C23.9234 5.625 24.2096 5.50647 24.4205 5.29549C24.6315 5.08452 24.75 4.79837 24.75 4.5C24.75 4.20163 24.6315 3.91548 24.4205 3.7045C24.2096 3.49353 23.9234 3.375 23.625 3.375H12.375C12.0767 3.375 11.7905 3.49353 11.5795 3.7045C11.3686 3.91548 11.25 4.20163 11.25 4.5C11.25 4.79837 11.3686 5.08452 11.5795 5.29549C11.7905 5.50647 12.0767 5.625 12.375 5.625H13.5V13.6294L4.82488 28.0927C4.62027 28.4338 4.50975 28.823 4.50458 29.2208C4.49942 29.6185 4.59978 30.0105 4.79545 30.3568C4.99112 30.7031 5.2751 30.9914 5.61845 31.1922C5.96181 31.393 6.35226 31.4992 6.75003 31.5H29.25C29.6482 31.5 30.0392 31.3943 30.3831 31.1938C30.727 30.9933 31.0116 30.7051 31.2078 30.3586C31.404 30.0122 31.5047 29.6199 31.4997 29.2218C31.4947 28.8237 31.3842 28.4341 31.1794 28.0927H31.1752ZM18.5077 22.0584C16.2703 20.9264 14.1413 20.3259 12.1486 20.257L15.5897 14.5195C15.6949 14.3451 15.7504 14.1452 15.75 13.9416V5.625H20.25V13.9416C20.2497 14.1452 20.3051 14.3451 20.4103 14.5195L25.785 23.4844C24.1032 23.8134 21.6971 23.6728 18.5077 22.0584Z" fill="#4EB08C"/>
</g>
</svg>
