<svg width="36" height="36" viewBox="0 0 36 36" fill="none" xmlns="http://www.w3.org/2000/svg">
<g id="dnk">
<path id="Vector" d="M28.1251 28.7574V32.6245C28.1251 32.9229 28.0066 33.2091 27.7956 33.42C27.5846 33.631 27.2985 33.7495 27.0001 33.7495C26.7018 33.7495 26.4156 33.631 26.2046 33.42C25.9937 33.2091 25.8751 32.9229 25.8751 32.6245V28.7574C25.8806 27.0846 25.4175 25.4438 24.5381 24.0209C23.6587 22.5979 22.3984 21.4498 20.8998 20.7066L14.0936 17.3049C12.2205 16.3759 10.6451 14.9407 9.54603 13.1621C8.44695 11.3835 7.86811 9.33252 7.87513 7.24173V3.37454C7.87513 3.07617 7.99365 2.79003 8.20463 2.57905C8.41561 2.36807 8.70176 2.24954 9.00013 2.24954C9.29849 2.24954 9.58464 2.36807 9.79562 2.57905C10.0066 2.79003 10.1251 3.07617 10.1251 3.37454V7.24173C10.1196 8.91445 10.5828 10.5553 11.4621 11.9782C12.3415 13.4011 13.6019 14.5493 15.1004 15.2925L21.9067 18.6942C23.7798 19.6232 25.3551 21.0584 26.4542 22.837C27.5533 24.6156 28.1321 26.6666 28.1251 28.7574ZM22.9473 26.9995H11.672C11.5178 26.9999 11.3651 26.9685 11.2235 26.9074C11.082 26.8462 10.9545 26.7566 10.8489 26.6441C10.7434 26.5316 10.6622 26.3987 10.6103 26.2535C10.5583 26.1082 10.5368 25.9539 10.547 25.8C10.5725 25.511 10.7061 25.2422 10.9212 25.0474C11.1363 24.8527 11.417 24.7463 11.7072 24.7495H21.0517C21.1641 24.7494 21.2739 24.7156 21.3669 24.6524C21.4599 24.5893 21.5319 24.4997 21.5735 24.3953C21.6151 24.2909 21.6245 24.1764 21.6004 24.0665C21.5763 23.9567 21.5199 23.8567 21.4384 23.7792C20.9743 23.3564 20.4537 23 19.8915 22.7203L13.6408 19.59C13.4556 19.4976 13.2486 19.458 13.0424 19.4756C12.8362 19.4932 12.6389 19.5674 12.4722 19.6899C11.0501 20.7364 9.89346 22.102 9.09507 23.6768C8.29667 25.2516 7.87883 26.9917 7.87513 28.7574V32.5866C7.87083 32.8773 7.97679 33.1589 8.17168 33.3746C8.36657 33.5904 8.63594 33.7243 8.92559 33.7495C9.07948 33.7598 9.23382 33.7382 9.37903 33.6863C9.52425 33.6343 9.65723 33.5531 9.76972 33.4476C9.88221 33.3421 9.97181 33.2146 10.033 33.073C10.0941 32.9314 10.1255 32.7788 10.1251 32.6245V30.3745H22.5001C22.7985 30.3745 23.0846 30.256 23.2956 30.045C23.5066 29.8341 23.6251 29.5479 23.6251 29.2495V28.7574C23.6251 28.3174 23.5827 27.8785 23.4986 27.4467C23.4721 27.3202 23.4028 27.2067 23.3024 27.1252C23.202 27.0438 23.0766 26.9994 22.9473 26.9995ZM26.9256 2.24954C26.6359 2.27475 26.3666 2.4087 26.1717 2.62447C25.9768 2.84023 25.8708 3.12179 25.8751 3.41251V5.62454H13.5001C13.2018 5.62454 12.9156 5.74307 12.7046 5.95405C12.4937 6.16503 12.3751 6.45117 12.3751 6.74954V7.24173C12.3752 7.68165 12.4176 8.12055 12.5017 8.55235C12.5282 8.67889 12.5975 8.79243 12.6979 8.87388C12.7983 8.95533 12.9237 8.9997 13.0529 8.99954H24.2931C24.5832 8.99629 24.8639 9.10269 25.079 9.29744C25.2941 9.4922 25.4278 9.76097 25.4533 10.05C25.4635 10.2039 25.4419 10.3582 25.39 10.5035C25.3381 10.6487 25.2568 10.7816 25.1513 10.8941C25.0458 11.0066 24.9183 11.0962 24.7767 11.1574C24.6351 11.2185 24.4825 11.2499 24.3283 11.2495H14.9486C14.8361 11.2497 14.7263 11.2835 14.6333 11.3466C14.5403 11.4098 14.4684 11.4994 14.4267 11.6038C14.3851 11.7082 14.3757 11.8227 14.3998 11.9325C14.4239 12.0423 14.4803 12.1424 14.5618 12.2199C15.026 12.6427 15.5466 12.9991 16.1087 13.2788L22.3595 16.4091C22.5445 16.5024 22.7518 16.5424 22.9582 16.5245C23.1646 16.5066 23.3619 16.4316 23.5281 16.3078C24.9499 15.2614 26.1065 13.8961 26.9049 12.3215C27.7033 10.747 28.1212 9.00712 28.1251 7.24173V3.37454C28.1255 3.22032 28.0941 3.06767 28.033 2.92609C27.9718 2.7845 27.8822 2.65699 27.7697 2.55149C27.6572 2.44599 27.5243 2.36474 27.379 2.3128C27.2338 2.26086 27.0795 2.23932 26.9256 2.24954Z" fill="#4EB08C"/>
</g>
</svg>
