<svg width="36" height="36" viewBox="0 0 36 36" fill="none" xmlns="http://www.w3.org/2000/svg">
<g id="heart">
<path id="Vector" d="M33.75 13.2188C33.75 23.0625 19.1545 31.0303 18.533 31.3594C18.3691 31.4475 18.186 31.4936 18 31.4936C17.814 31.4936 17.6309 31.4475 17.467 31.3594C16.9959 31.1063 8.53031 26.4811 4.43391 19.9842C4.38107 19.8991 4.35191 19.8015 4.34945 19.7013C4.34699 19.6012 4.37132 19.5022 4.41991 19.4146C4.46851 19.327 4.53962 19.254 4.62589 19.2031C4.71216 19.1522 4.81045 19.1252 4.91062 19.125H10.125C10.3103 19.1251 10.4927 19.0795 10.6561 18.9922C10.8195 18.9048 10.9587 18.7785 11.0616 18.6244L12.375 16.6556L15.9384 21.9994C16.075 22.2042 16.2749 22.3585 16.5076 22.4388C16.7402 22.519 16.9928 22.5208 17.2266 22.4438C17.4745 22.3598 17.6867 22.1942 17.8284 21.9741L19.7269 19.125H22.5C22.6542 19.1253 22.8069 19.094 22.9485 19.0328C23.09 18.9717 23.2176 18.8821 23.3231 18.7696C23.4286 18.6571 23.5098 18.5241 23.5617 18.3789C23.6137 18.2337 23.6352 18.0794 23.625 17.9255C23.5998 17.6363 23.4663 17.3673 23.2511 17.1725C23.0359 16.9777 22.7551 16.8714 22.4648 16.875H19.125C18.9397 16.8749 18.7573 16.9205 18.5939 17.0078C18.4305 17.0952 18.2913 17.2215 18.1884 17.3756L16.875 19.3444L13.3116 14.0006C13.1749 13.7956 12.9748 13.641 12.7418 13.5607C12.5089 13.4804 12.256 13.4789 12.022 13.5563C11.7747 13.6407 11.5631 13.8062 11.4216 14.0259L9.52313 16.875H3.30891C3.18869 16.8753 3.07153 16.8371 2.9746 16.766C2.87767 16.6949 2.80608 16.5946 2.77031 16.4798C2.43101 15.4258 2.25553 14.326 2.25 13.2188C2.25261 10.9072 3.17202 8.69106 4.80654 7.05654C6.44106 5.42202 8.65719 4.50261 10.9688 4.5C13.8727 4.5 16.4152 5.74875 18 7.85953C19.5848 5.74875 22.1273 4.5 25.0312 4.5C27.3428 4.50261 29.5589 5.42202 31.1935 7.05654C32.828 8.69106 33.7474 10.9072 33.75 13.2188Z" fill="#4EB08C"/>
</g>
</svg>
