<svg width="36" height="36" viewBox="0 0 36 36" fill="none" xmlns="http://www.w3.org/2000/svg">
<g id="veg">
<path id="Vector" d="M32.6251 11.2496H28.0464C29.0368 12.9658 29.4332 14.9608 29.1742 16.9252C28.9151 18.8897 28.0149 20.7137 26.6134 22.1143C25.4153 23.3364 23.8558 24.4937 22.1345 25.561C22.0268 25.6266 21.9001 25.6541 21.7749 25.639C21.6497 25.624 21.5332 25.5673 21.444 25.4781L16.5447 20.5787C16.4381 20.4721 16.3112 20.388 16.1715 20.3314C16.0318 20.2748 15.8821 20.2468 15.7314 20.2492C15.5807 20.2516 15.432 20.2842 15.2941 20.3451C15.1563 20.4061 15.0321 20.4941 14.9289 20.604C14.7303 20.8268 14.6255 21.1176 14.6363 21.4157C14.647 21.7139 14.7725 21.9964 14.9865 22.2043L19.1884 26.4062C19.2512 26.4688 19.2982 26.5454 19.3258 26.6297C19.3533 26.7141 19.3605 26.8037 19.3468 26.8913C19.3331 26.9789 19.2988 27.062 19.2469 27.1339C19.1949 27.2057 19.1267 27.2643 19.0478 27.3048C13.4636 30.2045 7.45326 32.1381 6.57857 32.4109C6.16014 32.6058 5.69189 32.6673 5.23731 32.5871C4.78273 32.5069 4.36383 32.2887 4.03743 31.9623C3.71103 31.6359 3.49291 31.217 3.41267 30.7625C3.33243 30.3079 3.39395 29.8396 3.58888 29.4212C3.97279 28.1964 7.66701 16.727 12.7098 10.6689C12.7599 10.6089 12.822 10.5601 12.892 10.5254C12.9621 10.4908 13.0385 10.4711 13.1166 10.4677C13.1947 10.4643 13.2726 10.4771 13.3454 10.5055C13.4182 10.5338 13.4843 10.577 13.5395 10.6323L19.4528 16.547C19.5622 16.6563 19.6929 16.7419 19.8368 16.7984C19.9808 16.8549 20.1348 16.8812 20.2893 16.8755C20.4438 16.8698 20.5955 16.8323 20.7349 16.7654C20.8743 16.6985 20.9984 16.6035 21.0995 16.4865C21.2844 16.2634 21.3783 15.9788 21.3627 15.6895C21.3471 15.4002 21.223 15.1274 21.0151 14.9256L15.1989 9.10932C15.1396 9.05026 15.0942 8.97872 15.066 8.89989C15.0379 8.82107 15.0277 8.73696 15.0362 8.65369C15.0447 8.57043 15.0716 8.4901 15.1151 8.41858C15.1586 8.34706 15.2175 8.28614 15.2875 8.24026C16.6828 7.31924 18.307 6.80506 19.9781 6.75539C21.6493 6.70571 23.3012 7.12249 24.7487 7.95901V3.37464C24.7484 3.22029 24.7798 3.06751 24.841 2.92583C24.9022 2.78414 24.992 2.65656 25.1046 2.55104C25.2173 2.44552 25.3504 2.3643 25.4958 2.31245C25.6412 2.2606 25.7957 2.23922 25.9497 2.24964C26.2396 2.27486 26.5091 2.40901 26.7041 2.62508C26.899 2.84114 27.0048 3.12305 27.0001 3.41401V7.40917L30.7042 3.7037C30.8087 3.59917 30.9328 3.51626 31.0694 3.45969C31.2059 3.40313 31.3523 3.37401 31.5001 3.37401C31.6479 3.37401 31.7943 3.40313 31.9309 3.45969C32.0675 3.51626 32.1915 3.59917 32.2961 3.7037C32.4006 3.80822 32.4835 3.93231 32.5401 4.06888C32.5966 4.20545 32.6258 4.35182 32.6258 4.49964C32.6258 4.64746 32.5966 4.79383 32.5401 4.93039C32.4835 5.06696 32.4006 5.19105 32.2961 5.29557L28.5906 8.99964H32.5858C32.8767 8.99498 33.1586 9.10078 33.3747 9.2957C33.5908 9.49063 33.7249 9.7602 33.7501 10.0501C33.7603 10.204 33.7388 10.3583 33.6869 10.5035C33.6349 10.6488 33.5537 10.7817 33.4482 10.8942C33.3427 11.0067 33.2152 11.0963 33.0736 11.1575C32.932 11.2186 32.7794 11.25 32.6251 11.2496Z" fill="#4EB08C"/>
</g>
</svg>
