<svg width="24" height="24" viewBox="0 0 24 24" fill="none" xmlns="http://www.w3.org/2000/svg">
<g id="arrow_right">
<path id="Vector" d="M9.92476 4.07617L17.4248 11.5762C17.5296 11.6807 17.6129 11.8049 17.6696 11.9416C17.7264 12.0784 17.7557 12.225 17.7557 12.373C17.7557 12.5211 17.7264 12.6677 17.6696 12.8045C17.6129 12.9412 17.5296 13.0654 17.4248 13.1699L9.92476 20.6699C9.71342 20.8813 9.42677 21 9.12789 21C8.829 21 8.54236 20.8813 8.33101 20.6699C8.11967 20.4586 8.00094 20.1719 8.00094 19.873C8.00094 19.5742 8.11967 19.2875 8.33101 19.0762L15.0351 12.3721L8.33008 5.66805C8.11873 5.45671 8 5.17006 8 4.87117C8 4.57229 8.11873 4.28564 8.33008 4.0743C8.54142 3.86296 8.82806 3.74422 9.12695 3.74422C9.42584 3.74422 9.71248 3.86296 9.92383 4.0743L9.92476 4.07617Z" fill="white"/>
</g>
</svg>
