<svg width="40" height="41" viewBox="0 0 40 41" fill="none" xmlns="http://www.w3.org/2000/svg">
<path d="M36.2313 27.8559C35.9527 29.9732 34.9129 31.9166 33.3061 33.3232C31.6994 34.7299 29.6355 35.5035 27.5 35.4997C15.0938 35.4997 5.00001 25.4059 5.00001 12.9997C4.99619 10.8642 5.76984 8.80034 7.17647 7.19358C8.58311 5.58682 10.5265 4.54704 12.6438 4.26843C13.1792 4.20306 13.7213 4.31259 14.1894 4.58068C14.6574 4.84877 15.0262 5.26103 15.2406 5.75593L18.5406 13.1231V13.1419C18.7048 13.5207 18.7727 13.9343 18.738 14.3457C18.7034 14.7572 18.5674 15.1536 18.3422 15.4997C18.3141 15.5419 18.2844 15.5809 18.2531 15.62L15 19.4762C16.1703 21.8544 18.6578 24.32 21.0672 25.4934L24.8703 22.2575C24.9077 22.2261 24.9468 22.1969 24.9875 22.17C25.3333 21.9394 25.7311 21.7986 26.145 21.7604C26.5588 21.7222 26.9757 21.7878 27.3578 21.9512L27.3781 21.9606L34.7391 25.2591C35.2348 25.4728 35.6481 25.8412 35.9171 26.3093C36.1861 26.7774 36.2963 27.32 36.2313 27.8559Z" fill="white"/>
</svg>
