<svg width="36" height="36" viewBox="0 0 36 36" fill="none" xmlns="http://www.w3.org/2000/svg">
<g id="time">
<path id="Vector" d="M29.2499 13.4999C29.2499 13.1662 29.3489 12.8399 29.5343 12.5624C29.7197 12.2849 29.9833 12.0686 30.2916 11.9409C30.6 11.8131 30.9393 11.7797 31.2666 11.8448C31.594 11.91 31.8946 12.0707 32.1306 12.3067C32.3666 12.5427 32.5274 12.8434 32.5925 13.1707C32.6576 13.498 32.6242 13.8373 32.4965 14.1457C32.3687 14.454 32.1524 14.7176 31.8749 14.903C31.5974 15.0884 31.2712 15.1874 30.9374 15.1874C30.4899 15.1874 30.0606 15.0096 29.7442 14.6932C29.4277 14.3767 29.2499 13.9475 29.2499 13.4999ZM27.5624 10.1249C27.8962 10.1249 28.2224 10.0259 28.4999 9.84052C28.7774 9.6551 28.9937 9.39154 29.1215 9.08319C29.2492 8.77484 29.2826 8.43554 29.2175 8.1082C29.1524 7.78086 28.9916 7.48017 28.7556 7.24417C28.5196 7.00817 28.219 6.84745 27.8916 6.78234C27.5643 6.71723 27.225 6.75065 26.9166 6.87837C26.6083 7.00609 26.3447 7.22238 26.1593 7.49989C25.9739 7.7774 25.8749 8.10366 25.8749 8.43742C25.8749 8.88497 26.0527 9.31419 26.3692 9.63066C26.6856 9.94713 27.1149 10.1249 27.5624 10.1249ZM31.5927 17.9999C31.2955 17.9754 31.0007 18.0699 30.7731 18.2627C30.5456 18.4554 30.4038 18.7307 30.3791 19.0279C30.1778 21.3798 29.3089 23.6252 27.8747 25.5001C26.4405 27.3749 24.5007 28.8011 22.2834 29.6109C20.0661 30.4206 17.6637 30.5803 15.3588 30.071C13.0539 29.5617 10.9424 28.4047 9.27278 26.7361C7.60313 25.0675 6.4448 22.9567 5.93407 20.6522C5.42333 18.3476 5.58145 15.9451 6.38982 13.7273C7.19818 11.5095 8.62317 9.56878 10.4971 8.1334C12.371 6.69802 14.616 5.82773 16.9677 5.62492C17.1155 5.61273 17.2593 5.57156 17.3912 5.50376C17.523 5.43597 17.6402 5.34287 17.736 5.22978C17.8319 5.1167 17.9045 4.98584 17.9498 4.84469C17.9951 4.70353 18.0121 4.55484 17.9999 4.4071C17.9877 4.25937 17.9465 4.11548 17.8788 3.98365C17.811 3.85182 17.7179 3.73464 17.6048 3.63879C17.4917 3.54294 17.3608 3.47031 17.2197 3.42503C17.0785 3.37976 16.9298 3.36273 16.7821 3.37492C14.0034 3.61393 11.3507 4.64159 9.13623 6.33698C6.92173 8.03237 5.2375 10.325 4.2817 12.9451C3.3259 15.5651 3.13829 18.4037 3.74094 21.1268C4.34359 23.8499 5.71143 26.3442 7.68353 28.3163C9.65563 30.2884 12.15 31.6562 14.873 32.2589C17.5961 32.8615 20.4347 32.6739 23.0548 31.7181C25.6748 30.7623 27.9674 29.0781 29.6628 26.8636C31.3582 24.6491 32.3859 21.9964 32.6249 19.2177C32.6376 19.0699 32.6209 18.921 32.5759 18.7796C32.5308 18.6383 32.4582 18.5072 32.3622 18.394C32.2663 18.2808 32.1489 18.1877 32.0168 18.1201C31.8848 18.0525 31.7406 18.0116 31.5927 17.9999ZM17.9999 7.87492C20.0024 7.87492 21.96 8.46874 23.6251 9.58129C25.2901 10.6938 26.5878 12.2751 27.3542 14.1252C28.1205 15.9753 28.321 18.0111 27.9304 19.9752C27.5397 21.9393 26.5754 23.7434 25.1594 25.1594C23.7434 26.5754 21.9393 27.5397 19.9752 27.9304C18.0111 28.321 15.9753 28.1205 14.1252 27.3542C12.2751 26.5879 10.6938 25.2901 9.58127 23.6251C8.46873 21.96 7.87491 20.0025 7.87491 17.9999C7.87788 15.3155 8.94558 12.7419 10.8437 10.8437C12.7419 8.94559 15.3155 7.87789 17.9999 7.87492ZM16.8749 17.9999C16.8749 18.2983 16.9934 18.5844 17.2044 18.7954C17.4154 19.0064 17.7015 19.1249 17.9999 19.1249H24.7499C25.0483 19.1249 25.3344 19.0064 25.5454 18.7954C25.7564 18.5844 25.8749 18.2983 25.8749 17.9999C25.8749 17.7015 25.7564 17.4154 25.5454 17.2044C25.3344 16.9934 25.0483 16.8749 24.7499 16.8749H19.1249V11.2499C19.1249 10.9515 19.0064 10.6654 18.7954 10.4544C18.5844 10.2434 18.2983 10.1249 17.9999 10.1249C17.7015 10.1249 17.4154 10.2434 17.2044 10.4544C16.9934 10.6654 16.8749 10.9515 16.8749 11.2499V17.9999ZM22.4999 6.74992C22.8337 6.74992 23.1599 6.65095 23.4374 6.46552C23.7149 6.2801 23.9312 6.01654 24.059 5.70819C24.1867 5.39984 24.2201 5.06054 24.155 4.7332C24.0899 4.40586 23.9291 4.10517 23.6931 3.86917C23.4571 3.63317 23.1565 3.47245 22.8291 3.40734C22.5018 3.34223 22.1625 3.37565 21.8541 3.50337C21.5458 3.63109 21.2822 3.84738 21.0968 4.12489C20.9114 4.4024 20.8124 4.72866 20.8124 5.06242C20.8124 5.50997 20.9902 5.93919 21.3067 6.25566C21.6231 6.57213 22.0524 6.74992 22.4999 6.74992Z" fill="#4EB08C"/>
</g>
</svg>
