<svg width="24" height="24" viewBox="0 0 24 24" fill="none" xmlns="http://www.w3.org/2000/svg">
<g id="arrow_left">
<path id="Vector" d="M15.8311 20.668L8.3311 13.168C8.22621 13.0635 8.143 12.9393 8.08622 12.8025C8.02944 12.6658 8.00021 12.5192 8.00021 12.3711C8.00021 12.223 8.02944 12.0764 8.08622 11.9397C8.143 11.8029 8.22622 11.6787 8.3311 11.5742L15.8311 4.07422C16.0424 3.86287 16.3291 3.74414 16.628 3.74414C16.9269 3.74414 17.2135 3.86287 17.4248 4.07422C17.6362 4.28556 17.7549 4.57221 17.7549 4.87109C17.7549 5.16998 17.6362 5.45662 17.4248 5.66797L10.7208 12.372L17.4258 19.0761C17.6371 19.2874 17.7559 19.5741 17.7559 19.873C17.7559 20.1719 17.6371 20.4585 17.4258 20.6698C17.2144 20.8812 16.9278 20.9999 16.6289 20.9999C16.33 20.9999 16.0434 20.8812 15.832 20.6698L15.8311 20.668Z" fill="white"/>
</g>
</svg>
