<svg width="146" height="35" viewBox="0 0 146 35" fill="none" xmlns="http://www.w3.org/2000/svg">
<g id="logo">
<g id="logo_2">
<path d="M48.7201 21.9383H45.3602L38.2977 2.17445H41.6301L47.0196 18.4868H47.1018L52.505 2.17445H55.7826L48.7201 21.9383Z" fill="#212B23"/>
<path d="M61.0107 21.9383V7.52971H63.9729V21.9383H61.0107ZM63.7123 4.92741C63.374 5.25612 62.9672 5.42048 62.4918 5.42048C62.0164 5.42048 61.6096 5.25612 61.2713 4.92741C60.9422 4.5987 60.7776 4.20151 60.7776 3.73583C60.7776 3.26102 60.9422 2.85927 61.2713 2.53055C61.6096 2.20184 62.0164 2.03749 62.4918 2.03749C62.9763 2.03749 63.3832 2.20184 63.7123 2.53055C64.0506 2.85927 64.2197 3.26102 64.2197 3.73583C64.2197 4.20151 64.0506 4.5987 63.7123 4.92741Z" fill="#212B23"/>
<path d="M71.5186 4.11933H74.4945V7.52971H77.2372V9.87179H74.4945V17.8157C74.4945 18.4366 74.6362 18.8931 74.9196 19.1853C75.203 19.4775 75.6464 19.6236 76.2498 19.6236C76.6887 19.6236 77.0132 19.6007 77.2235 19.5551V21.8972C76.8578 21.9885 76.3093 22.0341 75.5779 22.0341C74.1242 22.0341 73.082 21.7374 72.4512 21.1439C71.8295 20.5412 71.5186 19.5414 71.5186 18.1444V9.87179H69.4205V7.52971H71.5186V4.11933Z" fill="#212B23"/>
<path d="M88.1565 19.8427C89.1988 19.8427 90.0719 19.5277 90.7758 18.8977C91.4889 18.2585 91.8455 17.4732 91.8455 16.5419V15.4051L88.2937 15.6242C87.4069 15.6882 86.7212 15.9073 86.2366 16.2817C85.7612 16.6469 85.5235 17.14 85.5235 17.7609C85.5235 18.3909 85.7612 18.8977 86.2366 19.2812C86.7212 19.6555 87.3612 19.8427 88.1565 19.8427ZM87.3337 22.1848C85.9167 22.1848 84.7601 21.783 83.8642 20.9795C82.9774 20.176 82.534 19.1305 82.534 17.8431C82.534 16.583 83.0002 15.5832 83.9328 14.8436C84.8653 14.0948 86.1864 13.6748 87.896 13.5835L91.8455 13.3507V12.2413C91.8455 11.4377 91.5895 10.8123 91.0775 10.3649C90.5656 9.90831 89.857 9.68004 88.9519 9.68004C88.1108 9.68004 87.4251 9.86722 86.8949 10.2416C86.3738 10.616 86.0447 11.1318 85.9075 11.7893H83.1099C83.1922 10.4562 83.7682 9.36959 84.8379 8.52955C85.9075 7.68951 87.3154 7.26948 89.0616 7.26948C90.8078 7.26948 92.1975 7.69864 93.2306 8.55694C94.2728 9.41524 94.7939 10.5657 94.7939 12.0084V21.9383H91.9552V19.5688H91.8867C91.4752 20.3632 90.849 20.9978 90.0079 21.4726C89.1759 21.9474 88.2845 22.1848 87.3337 22.1848Z" fill="#212B23"/>
<path d="M101.435 21.9383V2.17445H104.397V21.9383H101.435Z" fill="#212B23"/>
<path d="M111.188 21.9383V7.52971H114.15V21.9383H111.188ZM113.89 4.92741C113.552 5.25612 113.145 5.42048 112.669 5.42048C112.194 5.42048 111.787 5.25612 111.449 4.92741C111.12 4.5987 110.955 4.20151 110.955 3.73583C110.955 3.26102 111.12 2.85927 111.449 2.53055C111.787 2.20184 112.194 2.03749 112.669 2.03749C113.154 2.03749 113.561 2.20184 113.89 2.53055C114.228 2.85927 114.397 3.26102 114.397 3.73583C114.397 4.20151 114.228 4.5987 113.89 4.92741Z" fill="#212B23"/>
<path d="M121.696 4.11933H124.672V7.52971H127.415V9.87179H124.672V17.8157C124.672 18.4366 124.814 18.8931 125.097 19.1853C125.381 19.4775 125.824 19.6236 126.427 19.6236C126.866 19.6236 127.191 19.6007 127.401 19.5551V21.8972C127.035 21.9885 126.487 22.0341 125.755 22.0341C124.302 22.0341 123.26 21.7374 122.629 21.1439C122.007 20.5412 121.696 19.5414 121.696 18.1444V9.87179H119.598V7.52971H121.696V4.11933Z" fill="#212B23"/>
<path d="M134.933 27.3072C134.375 27.3072 133.973 27.2844 133.726 27.2387V24.8419C133.873 24.8784 134.193 24.8967 134.686 24.8967C135.381 24.8967 135.925 24.7369 136.318 24.4173C136.711 24.1068 137.022 23.5818 137.251 22.8422C137.251 22.8331 137.296 22.6824 137.388 22.3902L137.511 21.952L132.3 7.52971H135.509L139.171 19.2538H139.212L142.873 7.52971H146L140.583 22.6916C139.971 24.4356 139.253 25.6408 138.43 26.3074C137.607 26.9739 136.442 27.3072 134.933 27.3072Z" fill="#212B23"/>
<path d="M69.9659 28.8971C71.6421 28.8971 72.6913 30.0759 72.6913 31.9506C72.6913 33.8253 71.6421 35 69.9659 35C68.2897 35 67.2405 33.8253 67.2405 31.9506C67.2405 30.0759 68.2897 28.8971 69.9659 28.8971ZM69.9659 29.5766C68.7569 29.5766 67.9987 30.4934 67.9987 31.9506C67.9987 33.4037 68.7569 34.3205 69.9659 34.3205C71.1749 34.3205 71.9331 33.4037 71.9331 31.9506C71.9331 30.4934 71.1749 29.5766 69.9659 29.5766Z" fill="#212B23"/>
<path d="M75.4381 34.9018H74.7004V28.9953H78.2906V29.6584H75.4381V31.6886H78.0569V32.3435H75.4381V34.9018Z" fill="#212B23"/>
<path d="M83.7679 34.9018H83.0384V28.9953H83.7556L86.9932 33.6329H87.0301V28.9953H87.7596V34.9018H87.0424L83.8048 30.2806H83.7679V34.9018Z" fill="#212B23"/>
<path d="M93.8425 34.9018L93.2483 33.2113H90.8958L90.3016 34.9018H89.527L91.7073 28.9953H92.4368L94.6171 34.9018H93.8425ZM92.0598 29.8917L91.1131 32.585H93.0311L92.0844 29.8917H92.0598Z" fill="#212B23"/>
<path d="M97.7984 34.9018H97.0607V29.6584H95.196V28.9953H99.6631V29.6584H97.7984V34.9018Z" fill="#212B23"/>
<path d="M102.271 28.9953V32.7815C102.271 33.6738 102.857 34.3205 103.881 34.3205C104.906 34.3205 105.492 33.6738 105.492 32.7815V28.9953H106.23V32.8306C106.23 34.0913 105.348 35 103.881 35C102.414 35 101.533 34.0913 101.533 32.8306V28.9953H102.271Z" fill="#212B23"/>
<path d="M109.206 29.6502V31.9138H110.62C111.378 31.9138 111.808 31.5044 111.808 30.78C111.808 30.0718 111.349 29.6502 110.587 29.6502H109.206ZM109.206 32.5646V34.9018H108.468V28.9953H110.685C111.825 28.9953 112.571 29.6912 112.571 30.7554C112.571 31.5781 112.124 32.2167 111.382 32.45L112.751 34.9018H111.886L110.62 32.5646H109.206Z" fill="#212B23"/>
<path d="M118.256 34.2387V34.9018H114.592V28.9953H118.256V29.6584H115.33V31.5536H118.104V32.2085H115.33V34.2387H118.256Z" fill="#212B23"/>
<path d="M24.8186 8.26173L14.8912 13.2192L4.96373 8.26173L0.827288 14.8717L5.79102 18.1767L0 21.4817L4.96373 28.9179L10.7547 25.6129V32.2229H19.0276V25.6129L24.8186 28.9179L28.9551 21.4817L23.1641 18.1767L28.9551 14.8717L24.8186 8.26173Z" fill="#212B23"/>
<path d="M19.8574 4.95748C19.8574 7.69541 17.635 9.91495 14.8936 9.91495C12.1522 9.91495 9.92991 7.69541 9.92991 4.95748C9.92991 2.21954 12.1522 0 14.8936 0C17.635 0 19.8574 2.21954 19.8574 4.95748Z" fill="#212B23"/>
</g>
</g>
</svg>
