<svg width="36" height="36" viewBox="0 0 36 36" fill="none" xmlns="http://www.w3.org/2000/svg">
<g id="atom">
<path id="Vector" d="M27.5792 17.9998C31.0456 13.1328 32.8132 8.1026 30.3551 5.64448C27.897 3.18635 22.8668 4.95401 17.9998 8.42042C13.1328 4.95401 8.1026 3.18635 5.64448 5.64448C3.18635 8.1026 4.95401 13.1328 8.42042 17.9998C4.95401 22.8668 3.18635 27.897 5.64448 30.3551C6.4362 31.1468 7.4937 31.4998 8.72557 31.4998C11.3229 31.4998 14.6993 29.929 18.0068 27.5792C21.3003 29.929 24.6753 31.4998 27.281 31.4998C28.5129 31.4998 29.5718 31.1454 30.3621 30.3551C32.8132 27.897 31.0456 22.8668 27.5792 17.9998ZM28.7646 7.23495C29.839 8.30932 29.1134 11.7912 26.1603 16.1337C25.226 14.9772 24.2313 13.8708 23.1804 12.8192C22.1283 11.7701 21.0219 10.7768 19.8659 9.84354C24.2084 6.89042 27.6903 6.16057 28.7646 7.23495ZM7.23495 7.23495C7.54432 6.92417 8.05479 6.76385 8.72839 6.76385C10.3906 6.76385 13.0442 7.73417 16.1323 9.84354C14.977 10.7772 13.8711 11.7704 12.8192 12.8192C11.7697 13.8709 10.7764 14.9773 9.84354 16.1337C6.89042 11.7912 6.16057 8.30932 7.23495 7.23495ZM7.23495 28.7646C6.16057 27.6903 6.89042 24.2084 9.84354 19.8659C10.7778 21.0224 11.7725 22.1288 12.8234 23.1804C13.8744 24.2291 14.9794 25.2223 16.1337 26.156C11.7912 29.1092 8.30932 29.839 7.23495 28.7646ZM17.9998 19.6873C17.666 19.6873 17.3398 19.5883 17.0623 19.4029C16.7848 19.2175 16.5685 18.9539 16.4407 18.6456C16.313 18.3372 16.2796 17.9979 16.3447 17.6706C16.4098 17.3432 16.5705 17.0425 16.8066 16.8065C17.0426 16.5705 17.3432 16.4098 17.6706 16.3447C17.9979 16.2796 18.3372 16.313 18.6456 16.4407C18.9539 16.5685 19.2175 16.7848 19.4029 17.0623C19.5883 17.3398 19.6873 17.666 19.6873 17.9998C19.6873 18.4473 19.5095 18.8766 19.193 19.193C18.8766 19.5095 18.4473 19.6873 17.9998 19.6873ZM28.7646 28.766C27.6903 29.8418 24.2084 29.1148 19.8659 26.1617C21.0218 25.2267 22.1281 24.232 23.1804 23.1818C24.2299 22.1296 25.2232 21.0228 26.156 19.8659C29.1092 24.2084 29.839 27.6903 28.7646 28.7646V28.766Z" fill="#4EB08C"/>
</g>
</svg>
