<svg width="36" height="36" viewBox="0 0 36 36" fill="none" xmlns="http://www.w3.org/2000/svg">
<g id="stop">
<path id="Vector" d="M28.125 18C28.1262 20.2965 27.3433 22.5245 25.9059 24.3155L11.6845 10.0941C13.1731 8.90264 14.968 8.15606 16.8624 7.94037C18.7568 7.72467 20.6736 8.04864 22.3919 8.87494C24.1102 9.70124 25.5601 10.9962 26.5744 12.6107C27.5887 14.2251 28.1263 16.0933 28.125 18ZM7.87501 18C7.87376 19.9067 8.41127 21.7749 9.4256 23.3893C10.4399 25.0038 11.8898 26.2988 13.6081 27.1251C15.3264 27.9514 17.2432 28.2753 19.1376 28.0596C21.032 27.8439 22.8269 27.0974 24.3155 25.9059L10.0941 11.6845C8.65667 13.4755 7.8738 15.7035 7.87501 18ZM33.1875 18C33.1875 21.0038 32.2968 23.9402 30.628 26.4377C28.9591 28.9353 26.5872 30.8819 23.812 32.0314C21.0369 33.1809 17.9832 33.4817 15.0371 32.8957C12.091 32.3097 9.38483 30.8632 7.26082 28.7392C5.13681 26.6152 3.69034 23.909 3.10433 20.9629C2.51832 18.0168 2.81908 14.9631 3.96859 12.188C5.11809 9.41284 7.06471 7.04088 9.56228 5.37206C12.0599 3.70323 14.9962 2.8125 18 2.8125C22.0266 2.81697 25.887 4.41851 28.7343 7.26575C31.5815 10.113 33.183 13.9734 33.1875 18ZM30.375 18C30.375 15.5525 29.6492 13.1599 28.2894 11.1248C26.9297 9.08976 24.997 7.50363 22.7357 6.56699C20.4745 5.63036 17.9863 5.38529 15.5858 5.86278C13.1852 6.34027 10.9802 7.51888 9.24956 9.24955C7.51889 10.9802 6.34028 13.1852 5.86279 15.5858C5.3853 17.9863 5.63036 20.4745 6.567 22.7357C7.50363 24.9969 9.08977 26.9297 11.1248 28.2894C13.1599 29.6492 15.5525 30.375 18 30.375C21.2809 30.3713 24.4264 29.0663 26.7463 26.7463C29.0663 24.4264 30.3713 21.2809 30.375 18Z" fill="#4EB08C"/>
</g>
</svg>
