<svg width="40" height="41" viewBox="0 0 40 41" fill="none" xmlns="http://www.w3.org/2000/svg">
<g id="mail">
<path id="Vector" d="M35 8H5C4.66848 8 4.35054 8.1317 4.11612 8.36612C3.8817 8.60054 3.75 8.91848 3.75 9.25V30.5C3.75 31.163 4.01339 31.7989 4.48223 32.2678C4.95107 32.7366 5.58696 33 6.25 33H33.75C34.413 33 35.0489 32.7366 35.5178 32.2678C35.9866 31.7989 36.25 31.163 36.25 30.5V9.25C36.25 8.91848 36.1183 8.60054 35.8839 8.36612C35.6495 8.1317 35.3315 8 35 8ZM15.4234 20.5L6.25 28.9078V12.0922L15.4234 20.5ZM17.2734 22.1953L19.1484 23.9219C19.3791 24.1336 19.6807 24.251 19.9937 24.251C20.3068 24.251 20.6084 24.1336 20.8391 23.9219L22.7141 22.1953L31.7766 30.5H8.21406L17.2734 22.1953ZM24.5766 20.5L33.75 12.0906V28.9094L24.5766 20.5Z" fill="white"/>
</g>
</svg>
